<?xml version="1.0" standalone="no"?>
<!DOCTYPE svg PUBLIC "-//W3C//DTD SVG 20000303 Stylable//EN"
	"http://www.w3.org/TR/2000/03/WD-SVG-20000303/DTD/svg-20000303-stylable.dtd">
<svg width="50pt" height="50pt" viewBox="0 0 50 50" xml:space="preserve">
<g transform="scale(0.5)">
	<g id="Door Handle - Closed" style="fill-rule:none;clip-rule:nonzero;fill:none;stroke:#000000;stroke-miterlimit:4;fill-opacity:100%;">
		<path d="M51.70 57.5L51.80 56.3L53.20 55.4L55.30 56.9L55.30 65.5L54.90 66.9L53.40 67.4L52.50 66L52.50 58.5L51.70 57.7"/>
	</g>
	<g id="Combination Lock" style="fill-rule:none;clip-rule:nonzero;fill:none;stroke:#000000;stroke-miterlimit:4;fill-opacity:100%;">
		<path d="M68.00 57.2L66.30 59.2L64.40 60.1L62.00 59.8L59.80 57.8L59.00 55.3L59.70 52.3L61.50 50.2L64.00 49.1L66.80 49.7L68.70 52.2L69.00 54.7L68.00 57.1"/>
	</g>
	<g id="Path_2" style="fill-rule:none;clip-rule:nonzero;fill:none;stroke:#000000;stroke-miterlimit:4;fill-opacity:100%;">
		<path d="M68.00 57.2L66.20 58.6L64.10 58.4L62.80 56.7L62.70 54.7L64.00 52.5L66.70 52.2L68.20 53.9L68.00 56.6"/>
	</g>
	<g id="Door Frame Outline" style="fill-rule:none;clip-rule:nonzero;fill:none;stroke:#000000;stroke-miterlimit:4;fill-opacity:100%;">
		<path d="M50.00 74L50.00 49.7L74.00 37.7L74.00 62z"/>
	</g>
</g>
</svg>