<?xml version="1.0" standalone="no"?>
<!DOCTYPE svg PUBLIC "-//W3C//DTD SVG 20000303 Stylable//EN"
	"http://www.w3.org/TR/2000/03/WD-SVG-20000303/DTD/svg-20000303-stylable.dtd">
<svg width="50pt" height="50pt" viewBox="0 0 50 50" xml:space="preserve">
<g transform="scale(0.5)">
	<g id="Path_9" style="fill-rule:none;clip-rule:nonzero;fill:#505450;stroke:#000000;stroke-miterlimit:4;">
		<path d="M44.60 29.88L44.34 98L97.43 77.46L98.20 16.14z"/>
	</g>
	<g id="Path_0" style="fill-rule:nonzero;clip-rule:nonzero;fill:#282a28;stroke:none;stroke-miterlimit:4;">
		<path d="M79.07 80.1L83.90 82.7L84.13 63.87L79.05 62.11z"/>
	</g>
	<g id="Path_1" style="fill-rule:nonzero;clip-rule:nonzero;fill:#7c7e7c;stroke:none;stroke-miterlimit:4;">
		<path d="M79.05 62.11L84.13 63.87L97.66 59.59L93.12 57.81z"/>
	</g>
	<g id="Path_12" style="fill-rule:nonzero;clip-rule:nonzero;fill:#282a28;stroke:none;stroke-miterlimit:4;">
		<path d="M63.62 66.8L65.00 85.18L79.07 80.1L79.05 62.11z"/>
	</g>
	<g id="bump7" style="fill-rule:nonzero;clip-rule:nonzero;fill:#282a28;stroke:none;stroke-miterlimit:4;">
		<path d="M63.64 29.29L63.64 47.27L78.68 43.17L78.29 25.38z"/>
	</g>
	<g id="Path_0" style="fill-rule:nonzero;clip-rule:nonzero;fill:#282a28;stroke:none;stroke-miterlimit:4;">
		<path d="M63.62 66.8L70.28 68.36L70.47 49.03L63.64 47.27z"/>
	</g>
	<g id="Path_9" style="fill-rule:nonzero;clip-rule:nonzero;fill:#282a28;stroke:none;stroke-miterlimit:4;">
		<path d="M50.00 51.06L49.87 71.18L63.62 66.8L63.64 47.27z"/>
	</g>
	<g id="Path_11" style="fill-rule:nonzero;clip-rule:nonzero;fill:#282a28;stroke:none;stroke-miterlimit:4;">
		<path d="M78.68 43.17L79.05 62.11L93.12 57.81L93.14 39.45z"/>
	</g>
	<g id="Path_1" style="fill-rule:nonzero;clip-rule:nonzero;fill:#7c7e7c;stroke:none;stroke-miterlimit:4;">
		<path d="M63.64 47.27L70.47 49.03L84.35 45.12L78.68 43.17z"/>
	</g>
	<g id="Path_0" style="fill-rule:nonzero;clip-rule:nonzero;fill:#282a28;stroke:none;stroke-miterlimit:4;">
		<path d="M78.68 43.17L84.35 45.12L84.15 26.75L78.29 25.38z"/>
	</g>
	<g id="Path_1" style="fill-rule:nonzero;clip-rule:nonzero;fill:#7c7e7c;stroke:none;stroke-miterlimit:4;">
		<path d="M78.29 25.38L84.15 26.75L98.13 22.65L93.73 21.08z"/>
	</g>
	<g id="Path_0" style="fill-rule:nonzero;clip-rule:nonzero;fill:#282a28;stroke:none;stroke-miterlimit:4;">
		<path d="M50.00 51.06L55.82 53.13L55.62 35.15L49.76 32.81z"/>
	</g>
	<g id="Path_0" style="fill-rule:nonzero;clip-rule:nonzero;fill:#282a28;stroke:none;stroke-miterlimit:4;">
		<path d="M49.96 90.65L55.59 93.64L55.41 73.05L49.87 71.18z"/>
	</g>
	<g id="Path_1" style="fill-rule:nonzero;clip-rule:nonzero;fill:#7c7e7c;stroke:none;stroke-miterlimit:4;">
		<path d="M49.87 71.18L55.41 73.05L70.28 68.36L63.62 66.8z"/>
	</g>
	<g id="Path_1" style="fill-rule:nonzero;clip-rule:nonzero;fill:#7c7e7c;stroke:none;stroke-miterlimit:4;">
		<path d="M49.76 32.81L55.62 35.15L70.28 31.64L63.64 29.29z"/>
	</g>
	<g id="Path_9" style="fill-rule:none;clip-rule:nonzero;fill:#282a28;stroke:#000000;stroke-miterlimit:4;">
		<path d="M44.60 29.88L44.34 98L2.71 74.54L2.90 12.67z"/>
	</g>
	<g id="Path_0" style="fill-rule:nonzero;clip-rule:nonzero;fill:#282a28;stroke:none;stroke-miterlimit:4;">
		<path d="M18.49 77.95L13.16 80.43L13.40 61.73L18.88 59.97z"/>
	</g>
	<g id="Path_1" style="fill-rule:nonzero;clip-rule:nonzero;fill:#7c7e7c;stroke:none;stroke-miterlimit:4;">
		<path d="M18.88 59.97L13.40 61.73L2.77 56.45L6.77 54.5z"/>
	</g>
	<g id="Path_12" style="fill-rule:nonzero;clip-rule:nonzero;fill:#000000;stroke:none;stroke-miterlimit:4;">
		<path d="M29.82 65.25L29.44 83.62L18.49 77.95L18.88 59.97z"/>
	</g>
	<g id="bump7" style="fill-rule:nonzero;clip-rule:nonzero;fill:#000000;stroke:none;stroke-miterlimit:4;">
		<path d="M30.61 28.7L30.41 46.1L18.69 41.21L18.69 24.01z"/>
	</g>
	<g id="Path_0" style="fill-rule:nonzero;clip-rule:nonzero;fill:#282a28;stroke:none;stroke-miterlimit:4;">
		<path d="M29.82 65.25L25.13 67.4L25.32 47.86L30.41 46.1z"/>
	</g>
	<g id="Path_9" style="fill-rule:nonzero;clip-rule:nonzero;fill:#000000;stroke:none;stroke-miterlimit:4;">
		<path d="M41.74 51.57L41.54 69.94L29.82 65.25L30.41 46.1z"/>
	</g>
	<g id="Path_11" style="fill-rule:nonzero;clip-rule:nonzero;fill:#000000;stroke:none;stroke-miterlimit:4;">
		<path d="M18.69 41.21L18.88 59.97L6.77 54.5L7.54 36.91z"/>
	</g>
	<g id="Path_1" style="fill-rule:nonzero;clip-rule:nonzero;fill:#7c7e7c;stroke:none;stroke-miterlimit:4;">
		<path d="M30.41 46.1L25.32 47.86L13.60 42.97L18.69 41.21z"/>
	</g>
	<g id="Path_0" style="fill-rule:nonzero;clip-rule:nonzero;fill:#282a28;stroke:none;stroke-miterlimit:4;">
		<path d="M18.69 41.21L13.60 42.97L13.80 25.77L18.69 24.01z"/>
	</g>
	<g id="Path_1" style="fill-rule:nonzero;clip-rule:nonzero;fill:#7c7e7c;stroke:none;stroke-miterlimit:4;">
		<path d="M18.69 24.01L13.80 25.77L2.87 21.67L8.53 19.91z"/>
	</g>
	<g id="Path_0" style="fill-rule:nonzero;clip-rule:nonzero;fill:#282a28;stroke:none;stroke-miterlimit:4;">
		<path d="M41.74 51.57L36.66 53.33L36.86 34.96L41.94 33z"/>
	</g>
	<g id="Path_0" style="fill-rule:nonzero;clip-rule:nonzero;fill:#282a28;stroke:none;stroke-miterlimit:4;">
		<path d="M41.55 89.68L36.47 93.57L36.46 72.87L41.54 69.94z"/>
	</g>
	<g id="Path_1" style="fill-rule:nonzero;clip-rule:nonzero;fill:#7c7e7c;stroke:none;stroke-miterlimit:4;">
		<path d="M41.54 69.94L36.46 72.87L25.13 67.4L29.82 65.25z"/>
	</g>
	<g id="Path_1" style="fill-rule:nonzero;clip-rule:nonzero;fill:#7c7e7c;stroke:none;stroke-miterlimit:4;">
		<path d="M41.94 33L36.86 34.96L25.72 30.07L30.61 28.7z"/>
	</g>
	<g id="Path_9" style="fill-rule:none;clip-rule:nonzero;fill:#a8a8a8;stroke:#000000;stroke-miterlimit:4;">
		<path d="M44.60 29.88L98.20 16.14L54.37 1.88L2.90 12.67z"/>
	</g>
	<g id="Path_0" style="fill-rule:nonzero;clip-rule:nonzero;fill:#545454;stroke:none;stroke-miterlimit:4;">
		<path d="M64.21 8.97L64.27 5.09999999999999L50.25 8.14L50.92 11.9z"/>
	</g>
	<g id="Path_1" style="fill-rule:nonzero;clip-rule:nonzero;fill:#a8a8a8;stroke:none;stroke-miterlimit:4;">
		<path d="M50.92 11.9L50.25 8.14L41.04 4.68000000000001L40.96 8.38z"/>
	</g>
	<g id="Path_12" style="fill-rule:nonzero;clip-rule:nonzero;fill:#505450;stroke:none;stroke-miterlimit:4;">
		<path d="M61.08 16.39L74.96 12.49L64.21 8.97L50.92 11.9z"/>
	</g>
	<g id="bump7" style="fill-rule:nonzero;clip-rule:nonzero;fill:#505450;stroke:none;stroke-miterlimit:4;">
		<path d="M33.84 22.71L47.60 19.13L36.66 15.22L23.56 18.35z"/>
	</g>
	<g id="Path_0" style="fill-rule:nonzero;clip-rule:nonzero;fill:#545454;stroke:none;stroke-miterlimit:4;">
		<path d="M61.08 16.39L61.03 12.11L46.96 15.08L47.60 19.13z"/>
	</g>
	<g id="Path_9" style="fill-rule:nonzero;clip-rule:nonzero;fill:#505450;stroke:none;stroke-miterlimit:4;">
		<path d="M57.96 23.82L72.22 20.3L61.08 16.39L47.60 19.13z"/>
	</g>
	<g id="Path_11" style="fill-rule:nonzero;clip-rule:nonzero;fill:#505450;stroke:none;stroke-miterlimit:4;">
		<path d="M36.66 15.22L50.92 11.9L40.96 8.38L26.89 11.12z"/>
	</g>
	<g id="Path_1" style="fill-rule:nonzero;clip-rule:nonzero;fill:#a8a8a8;stroke:none;stroke-miterlimit:4;">
		<path d="M47.60 19.13L46.96 15.08L36.47 11.06L36.66 15.22z"/>
	</g>
	<g id="Path_1" style="fill-rule:nonzero;clip-rule:nonzero;fill:#a8a8a8;stroke:none;stroke-miterlimit:4;">
		<path d="M23.56 18.35L23.56 13.85L13.25 10.5L13.21 14.44z"/>
	</g>
	<g id="Path_0" style="fill-rule:nonzero;clip-rule:nonzero;fill:#545454;stroke:none;stroke-miterlimit:4;">
		<path d="M57.96 23.82L57.97 18.74L44.82 22.12L45.06 27.14z"/>
	</g>
	<g id="Path_0" style="fill-rule:nonzero;clip-rule:nonzero;fill:#545454;stroke:none;stroke-miterlimit:4;">
		<path d="M87.08 16.59L87.00 12.5L72.42 15.81L72.22 20.3z"/>
	</g>
	<g id="Path_1" style="fill-rule:nonzero;clip-rule:nonzero;fill:#a8a8a8;stroke:none;stroke-miterlimit:4;">
		<path d="M72.22 20.3L72.42 15.81L61.03 12.11L61.08 16.39z"/>
	</g>
	<g id="Path_1" style="fill-rule:nonzero;clip-rule:nonzero;fill:#a8a8a8;stroke:none;stroke-miterlimit:4;">
		<path d="M45.06 27.14L44.82 22.12L33.53 17.96L33.84 22.71z"/>
	</g>
	<g id="Path_0" style="fill-rule:nonzero;clip-rule:nonzero;fill:#545454;stroke:none;stroke-miterlimit:4;">
		<path d="M36.66 15.22L36.37 10.97L23.56 13.85L23.56 18.35z"/>
	</g>
	<g id="Path_4" style="fill-rule:none;clip-rule:nonzero;fill:#f8fcf8;stroke:#000000;stroke-miterlimit:4;">
		<path d="M23.56 13.85L36.47 11.06L26.23 7.78L13.25 10.5z"/>
	</g>
	<g id="Path_4" style="fill-rule:none;clip-rule:nonzero;fill:#f8fcf8;stroke:#000000;stroke-miterlimit:4;">
		<path d="M46.96 15.08L61.03 12.11L50.25 8.14L36.37 10.97z"/>
	</g>
	<g id="Path_4" style="fill-rule:none;clip-rule:nonzero;fill:#f8fcf8;stroke:#000000;stroke-miterlimit:4;">
		<path d="M50.25 8.14L64.27 5.09999999999999L54.37 1.88L41.04 4.68000000000001z"/>
	</g>
	<g id="Path_4" style="fill-rule:none;clip-rule:nonzero;fill:#f8fcf8;stroke:#000000;stroke-miterlimit:4;">
		<path d="M72.42 15.81L87.00 12.5L75.55 8.77L61.03 12.11z"/>
	</g>
	<g id="Path_4" style="fill-rule:none;clip-rule:nonzero;fill:#f8fcf8;stroke:#000000;stroke-miterlimit:4;">
		<path d="M44.82 22.12L57.97 18.74L46.96 15.08L33.53 17.96z"/>
	</g>
	<g id="Path_4" style="fill-rule:none;clip-rule:nonzero;fill:#505450;stroke:#000000;stroke-miterlimit:4;">
		<path d="M13.80 25.77L13.60 42.97L2.82 37.89L2.87 21.67z"/>
	</g>
	<g id="Path_4" style="fill-rule:none;clip-rule:nonzero;fill:#505450;stroke:#000000;stroke-miterlimit:4;">
		<path d="M13.40 61.73L13.16 80.43L2.71 74.54L2.77 56.45z"/>
	</g>
	<g id="Path_4" style="fill-rule:none;clip-rule:nonzero;fill:#505450;stroke:#000000;stroke-miterlimit:4;">
		<path d="M25.32 47.86L25.13 67.4L13.40 61.73L13.60 42.97z"/>
	</g>
	<g id="Path_4" style="fill-rule:none;clip-rule:nonzero;fill:#505450;stroke:#000000;stroke-miterlimit:4;">
		<path d="M36.86 34.96L36.66 53.33L25.32 47.86L25.72 30.07z"/>
	</g>
	<g id="Path_4" style="fill-rule:none;clip-rule:nonzero;fill:#505450;stroke:#000000;stroke-miterlimit:4;">
		<path d="M36.46 72.87L36.47 93.57L25.30 87.27L25.13 67.4z"/>
	</g>
	<g id="Path_4" style="fill-rule:none;clip-rule:nonzero;fill:#d0d2d0;stroke:#000000;stroke-miterlimit:4;">
		<path d="M55.41 73.05L55.59 93.64L70.12 88.02L70.28 68.36z"/>
	</g>
	<g id="Path_4" style="fill-rule:none;clip-rule:nonzero;fill:#d0d2d0;stroke:#000000;stroke-miterlimit:4;">
		<path d="M84.26 63.89L83.90 82.7L97.43 77.46L97.66 59.59z"/>
	</g>
	<g id="Path_4" style="fill-rule:none;clip-rule:nonzero;fill:#d0d2d0;stroke:#000000;stroke-miterlimit:4;">
		<path d="M70.47 49.03L70.28 68.36L84.26 63.89L84.35 45.12z"/>
	</g>
	<g id="Path_4" style="fill-rule:none;clip-rule:nonzero;fill:#d0d2d0;stroke:#000000;stroke-miterlimit:4;">
		<path d="M55.62 35.15L55.82 53.13L70.47 49.03L70.28 31.64z"/>
	</g>
	<g id="Path_4" style="fill-rule:none;clip-rule:nonzero;fill:#d0d2d0;stroke:#000000;stroke-miterlimit:4;">
		<path d="M84.15 26.75L84.35 45.12L97.89 40.83L98.13 22.65z"/>
	</g>
</g>
</svg>