<?xml version="1.0" standalone="no"?>
<!DOCTYPE svg PUBLIC "-//W3C//DTD SVG 20000303 Stylable//EN"
	"http://www.w3.org/TR/2000/03/WD-SVG-20000303/DTD/svg-20000303-stylable.dtd">
<svg width="50pt" height="50pt" viewBox="0 0 50 50" xml:space="preserve">
<g transform="scale(0.5)">
	<g id="Spiral Line" style="fill-rule:none;clip-rule:nonzero;fill:none;stroke:#000000;stroke-miterlimit:4;fill-opacity:100%;">
		<path d="M22.00 94.1L84.60 62.8L86.00 60.3L86.80 57.7L86.00 55.2L84.60 52.9L69.60 45.4L67.00 44.3L64.40 44L62.40 44.1L60.30 44.65L34.40 57.6L33.30 59.1L33.10 60.5L33.60 61.7L34.70 62.8L39.70 65.3L41.40 65.9L43.20 66L46.20 65.4L48.40 64.5L80.20 48.6L82.20 46L82.70 43.9L82.30 41.7L80.20 38.5L68.40 32.6L66.40 32.3L64.30 32.2L62.80 32.3L60.80 32.75L39.70 43.3L38.40 44.4L37.30 45.3L37.00 46.6L37.30 47.7L38.10 48.5L39.30 48.9L41.50 49.2L42.80 49L44.90 48.4L75.30 33.2L77.70 31.2L78.70 28.3L77.70 25.4L75.30 23.2L54.80 12.95"/>
	</g>
	<g id="Arrow Head" style="fill-rule:none;clip-rule:nonzero;fill:#f80000;stroke:#000000;stroke-miterlimit:4;fill-opacity:100%;">
		<path d="M50.60 14.8L44.30 7.2L59.40 10.4z"/>
	</g>
</g>
</svg>