<?xml version="1.0" standalone="no"?>
<!DOCTYPE svg PUBLIC "-//W3C//DTD SVG 20000303 Stylable//EN"
	"http://www.w3.org/TR/2000/03/WD-SVG-20000303/DTD/svg-20000303-stylable.dtd">
<svg width="50pt" height="50pt" viewBox="0 0 50 50" xml:space="preserve">
<g transform="scale(0.5)">
	<g id="Path_0" style="fill-rule:nonzero;clip-rule:nonzero;fill:#000000;stroke:none;stroke-miterlimit:4;fill-opacity:75%;">
		<path d="M5.00 87.5L15.00 92.5L20.40 92.8L25.00 92.5L65.00 72.5L65.00 67.5L55.00 62.5z"/>
	</g>
	<g id="Path_1" style="fill-rule:none;clip-rule:nonzero;fill:#FFFFFF;stroke:#000000;stroke-miterlimit:4;fill-opacity:100%;">
		<path d="M10.00 20L10.00 80L50.00 60L53.20 57L55.00 52.5L55.00 7.5L53.20 3.2L50.00 0z"/>
	</g>
	<g id="Path_2" style="fill-rule:none;clip-rule:nonzero;fill:#b48c8c;stroke:#000000;stroke-miterlimit:4;fill-opacity:100%;">
		<path d="M17.40 25.2L14.80 26L14.80 71L17.80 69.2L20.40 66.4L20.40 25.2z"/>
	</g>
	<g id="Path_3" style="fill-rule:none;clip-rule:nonzero;fill:#FFFFFF;stroke:#000000;stroke-miterlimit:4;fill-opacity:100%;">
		<path d="M17.20 31.4L20.40 32L20.40 45.7L17.20 47.4L14.80 48L14.80 33.2z"/>
	</g>
	<g id="Path_4" style="fill-rule:none;clip-rule:nonzero;fill:none;stroke:#f8fcf8;stroke-miterlimit:4;fill-opacity:100%;">
		<path d="M17.00 44.6L17.05 35.88"/>
	</g>
	<g id="Path_6" style="fill-rule:none;clip-rule:nonzero;fill:none;stroke:#000000;stroke-miterlimit:4;fill-opacity:100%;">
		<path d="M17.36 40.15L16.79 40.43"/>
	</g>
</g>
</svg>