<?xml version="1.0" standalone="no"?>
<!DOCTYPE svg PUBLIC "-//W3C//DTD SVG 20000303 Stylable//EN"
	"http://www.w3.org/TR/2000/03/WD-SVG-20000303/DTD/svg-20000303-stylable.dtd">
<svg width="50pt" height="50pt" viewBox="0 0 50 50" xml:space="preserve">
<g transform="scale(0.5)">
	<g id="Color Map Large Square" style="fill-rule:nonzero;clip-rule:nonzero;fill:#f800f8;stroke:none;stroke-miterlimit:4;">
		<path d="M34.12 78L34.12 22.94L80.00 0L80.00 55.06z"/>
	</g>
	<g id="White Squares - Bottom" style="fill-rule:nonzero;clip-rule:nonzero;fill:#FFFFFF;stroke:none;stroke-miterlimit:4;fill-opacity:100%;">
		<path d="M51.33 69.4L51.33 55.63L62.80 49.9L62.80 63.66z"/>
	</g>
	<g id="White Squares - Left" style="fill-rule:nonzero;clip-rule:nonzero;fill:#FFFFFF;stroke:none;stroke-miterlimit:4;fill-opacity:100%;">
		<path d="M34.12 57.35L34.12 43.59L45.59 37.85L45.59 51.62z"/>
	</g>
	<g id="White Squares - Top" style="fill-rule:nonzero;clip-rule:nonzero;fill:#FFFFFF;stroke:none;stroke-miterlimit:4;fill-opacity:100%;">
		<path d="M51.33 14.34L62.80 8.61L62.80 22.37L51.33 28.11z"/>
	</g>
	<g id="White Squares - Right " style="fill-rule:nonzero;clip-rule:nonzero;fill:#FFFFFF;stroke:none;stroke-miterlimit:4;fill-opacity:100%;">
		<path d="M80.00 20.65L80.00 34.41L68.53 40.15L68.53 26.39z"/>
	</g>
	<g id="Purple Center" style="fill-rule:nonzero;clip-rule:nonzero;fill:#883888;stroke:none;stroke-miterlimit:4;fill-opacity:100%;">
		<path d="M45.59 58.5L45.59 30.97L68.53 19.5L68.53 47.03z"/>
	</g>
	<g id="Red center" style="fill-rule:nonzero;clip-rule:nonzero;fill:#f80000;stroke:none;stroke-miterlimit:4;fill-opacity:100%;">
		<path d="M51.33 48.75L51.33 34.99L62.80 29.25L62.80 43.02z"/>
	</g>
	<g id="Lines - Horizontal" style="fill-rule:none;clip-rule:nonzero;fill:none;stroke:#000000;stroke-miterlimit:4;fill-opacity:100%;">
		<path d="M34.12 78L80.00 55.06"/>
	</g>
	<g id="Path_8" style="fill-rule:none;clip-rule:nonzero;fill:none;stroke:#000000;stroke-miterlimit:4;fill-opacity:100%;">
		<path d="M34.12 71.12L80.00 48.18"/>
	</g>
	<g id="Path_9" style="fill-rule:none;clip-rule:nonzero;fill:none;stroke:#000000;stroke-miterlimit:4;fill-opacity:100%;">
		<path d="M34.12 64.24L80.00 41.3"/>
	</g>
	<g id="Path_10" style="fill-rule:none;clip-rule:nonzero;fill:none;stroke:#000000;stroke-miterlimit:4;fill-opacity:100%;">
		<path d="M34.12 57.35L80.00 34.41"/>
	</g>
	<g id="Path_11" style="fill-rule:none;clip-rule:nonzero;fill:none;stroke:#000000;stroke-miterlimit:4;fill-opacity:100%;">
		<path d="M34.12 50.47L80.00 27.53"/>
	</g>
	<g id="Path_12" style="fill-rule:none;clip-rule:nonzero;fill:none;stroke:#000000;stroke-miterlimit:4;fill-opacity:100%;">
		<path d="M34.12 43.59L80.00 20.65"/>
	</g>
	<g id="Path_13" style="fill-rule:none;clip-rule:nonzero;fill:none;stroke:#000000;stroke-miterlimit:4;fill-opacity:100%;">
		<path d="M34.12 36.71L80.00 13.77"/>
	</g>
	<g id="Path_14" style="fill-rule:none;clip-rule:nonzero;fill:none;stroke:#000000;stroke-miterlimit:4;fill-opacity:100%;">
		<path d="M34.12 29.83L80.00 6.89"/>
	</g>
	<g id="Path_15" style="fill-rule:none;clip-rule:nonzero;fill:none;stroke:#000000;stroke-miterlimit:4;fill-opacity:100%;">
		<path d="M34.12 22.94L80.00 0"/>
	</g>
	<g id="Lines - Vertical" style="fill-rule:none;clip-rule:nonzero;fill:none;stroke:#000000;stroke-miterlimit:4;fill-opacity:100%;">
		<path d="M34.12 78L34.12 22.94"/>
	</g>
	<g id="Path_17" style="fill-rule:none;clip-rule:nonzero;fill:none;stroke:#000000;stroke-miterlimit:4;fill-opacity:100%;">
		<path d="M39.86 75.13L39.86 20.08"/>
	</g>
	<g id="Path_18" style="fill-rule:none;clip-rule:nonzero;fill:none;stroke:#000000;stroke-miterlimit:4;fill-opacity:100%;">
		<path d="M45.59 72.26L45.59 17.21"/>
	</g>
	<g id="Path_19" style="fill-rule:none;clip-rule:nonzero;fill:none;stroke:#000000;stroke-miterlimit:4;fill-opacity:100%;">
		<path d="M51.33 69.4L51.33 14.34"/>
	</g>
	<g id="Path_20" style="fill-rule:none;clip-rule:nonzero;fill:none;stroke:#000000;stroke-miterlimit:4;fill-opacity:100%;">
		<path d="M57.06 66.53L57.06 11.47"/>
	</g>
	<g id="Path_21" style="fill-rule:none;clip-rule:nonzero;fill:none;stroke:#000000;stroke-miterlimit:4;fill-opacity:100%;">
		<path d="M62.80 63.66L62.80 8.61"/>
	</g>
	<g id="Path_22" style="fill-rule:none;clip-rule:nonzero;fill:none;stroke:#000000;stroke-miterlimit:4;fill-opacity:100%;">
		<path d="M68.53 60.79L68.53 5.73999999999999"/>
	</g>
	<g id="Path_23" style="fill-rule:none;clip-rule:nonzero;fill:none;stroke:#000000;stroke-miterlimit:4;fill-opacity:100%;">
		<path d="M74.26 57.93L74.26 2.87"/>
	</g>
	<g id="Path_24" style="fill-rule:none;clip-rule:nonzero;fill:none;stroke:#000000;stroke-miterlimit:4;fill-opacity:100%;">
		<path d="M80.00 55.06L80.00 0"/>
	</g>
</g>
</svg>