<?xml version="1.0" standalone="no"?>
<!DOCTYPE svg PUBLIC "-//W3C//DTD SVG 20000303 Stylable//EN"
	"http://www.w3.org/TR/2000/03/WD-SVG-20000303/DTD/svg-20000303-stylable.dtd">
<svg width="50pt" height="50pt" viewBox="0 0 50 50" xml:space="preserve">
<g transform="scale(0.5)">
	<g id="Path_0" style="fill-rule:nonzero;clip-rule:nonzero;fill:#007ef8;stroke:none;stroke-miterlimit:4;">
		<path d="M77.68 85.33L96.10 36.44L36.73 18.82L1.50 55.88z"/>
	</g>
	<g id="Path_1" style="fill-rule:nonzero;clip-rule:nonzero;fill:#282aa4;stroke:none;stroke-miterlimit:4;">
		<path d="M35.14 20.89L94.67 38.67L95.94 36.29L37.05 18.82z"/>
	</g>
	<g id="Path_2" style="fill-rule:nonzero;clip-rule:nonzero;fill:#282aa4;stroke:none;stroke-miterlimit:4;">
		<path d="M93.56 35.49L74.35 84.38L77.52 85.65L96.10 36.44z"/>
	</g>
	<g id="Path_3" style="fill-rule:nonzero;clip-rule:nonzero;fill:#282aa4;stroke:none;stroke-miterlimit:4;">
		<path d="M36.57 18.67L3.53 53.35L4.45 57.05L39.27 19.46z"/>
	</g>
	<g id="Path_4" style="fill-rule:nonzero;clip-rule:nonzero;fill:#282aa4;stroke:none;stroke-miterlimit:4;">
		<path d="M3.85 53.01L78.79 82L77.52 85.81L1.15 55.79z"/>
	</g>
	<g id="Path_5" style="fill-rule:nonzero;clip-rule:nonzero;fill:#282aa4;stroke:none;stroke-miterlimit:4;">
		<path d="M53.93 24.83L25.83 63.72L28.37 64.67L56.79 25.46z"/>
	</g>
	<g id="Path_6" style="fill-rule:nonzero;clip-rule:nonzero;fill:#282aa4;stroke:none;stroke-miterlimit:4;">
		<path d="M74.67 30.73L52.44 72.16L55.46 73.27L77.21 32z"/>
	</g>
	<g id="Path_7" style="fill-rule:nonzero;clip-rule:nonzero;fill:#282aa4;stroke:none;stroke-miterlimit:4;">
		<path d="M90.54 49.46L28.17 27.69L28.00 30.39L89.11 52.32z"/>
	</g>
	<g id="Path_8" style="fill-rule:nonzero;clip-rule:nonzero;fill:#282aa4;stroke:none;stroke-miterlimit:4;">
		<path d="M83.40 63.75L18.64 39.62L18.00 42.48L81.97 66.6z"/>
	</g>
	<g id="Path_9" style="fill-rule:none;clip-rule:nonzero;fill:none;stroke:#000000;stroke-miterlimit:4;">
		<path d="M36.59 18.68L1.18 55.84L77.52 85.81L96.08 36.31L36.63 18.68"/>
	</g>
</g>
</svg>