<?xml version="1.0" standalone="no"?>
<!DOCTYPE svg PUBLIC "-//W3C//DTD SVG 20000303 Stylable//EN"
	"http://www.w3.org/TR/2000/03/WD-SVG-20000303/DTD/svg-20000303-stylable.dtd">
<svg width="50pt" height="50pt" viewBox="0 0 50 50" xml:space="preserve">
<g transform="scale(0.5)">
	<g id="Icon Shadow - Open" style="fill-rule:nonzero;clip-rule:nonzero;fill:#000000;stroke:none;stroke-miterlimit:4;fill-opacity:75%;">
		<path d="M18.00 84L10.00 80L50.00 60L58.00 64z"/>
	</g>
	<g id="Icon - Open" style="fill-rule:none;clip-rule:nonzero;fill:#FFFFFF;stroke:#000000;stroke-miterlimit:4;fill-opacity:100%;">
		<path d="M18.00 74L15.84 72.72L14.00 71L12.10 68.73L10.90 66.8L10.00 64L10.00 60L10.00 20L50.00 0L50.00 40L50.00 44L50.88 47.16L52.04 49.3L53.48 50.86L55.00 52L58.00 54z"/>
	</g>
	<g id="Path_2" style="fill-rule:none;clip-rule:nonzero;fill:none;stroke:#a8a8a8;stroke-miterlimit:4;fill-opacity:100%;">
		<path d="M57.92 72.66L60.00 68.4L59.72 53.56"/>
	</g>
	<g id="Path_10" style="fill-rule:none;clip-rule:nonzero;fill:#883888;stroke:#000000;stroke-miterlimit:4;fill-opacity:100%;">
		<path d="M88.37 0.590000000000003L88.18 12.51L97.37 17.09L97.37 5.09z"/>
	</g>
	<g id="Path_11" style="fill-rule:none;clip-rule:nonzero;fill:#f800f8;stroke:#000000;stroke-miterlimit:4;fill-opacity:100%;">
		<path d="M79.35 5.08L79.36 16.92L88.36 12.42L88.37 0.590000000000003z"/>
	</g>
	<g id="Path_12" style="fill-rule:none;clip-rule:nonzero;fill:#883888;stroke:#000000;stroke-miterlimit:4;fill-opacity:100%;">
		<path d="M79.36 16.92L88.23 21.34L97.37 17.09L88.36 12.42z"/>
	</g>
	<g id="Path_0" style="fill-rule:none;clip-rule:nonzero;fill:#000000;stroke:#000000;stroke-miterlimit:4;fill-opacity:100%;">
		<path d="M40.42 43.1L40.42 53.9L41.02 60.3L39.82 64.5L40.00 69.6L42.00 72L46.00 73.4L50.00 73.8L55.60 73.8L62.20 72.6L68.00 70.2L72.20 65.6L74.02 59.9L72.52 56.53L71.82 54.96L70.42 50.26L70.08 43.39L72.44 29.3z"/>
	</g>
	<g id="Path_1" style="fill-rule:nonzero;clip-rule:nonzero;fill:#FFFFFF;stroke:none;stroke-miterlimit:4;fill-opacity:100%;">
		<path d="M46.33 36.5L48.00 52L49.59 58.95L49.00 64.6L47.80 68L46.20 70.8L50.00 71.4L51.00 68.5L52.40 64.8L52.79 58.75L51.40 50L49.20 33.59z"/>
	</g>
	<g id="Path_2" style="fill-rule:none;clip-rule:nonzero;fill:none;stroke:#a8a8a8;stroke-miterlimit:4;fill-opacity:100%;">
		<path d="M69.80 65.6L67.60 61.6L65.40 56.8L63.58 45.42"/>
	</g>
	<g id="Path_7" style="fill-rule:none;clip-rule:nonzero;fill:#FFFFFF;stroke:#000000;stroke-miterlimit:4;fill-opacity:100%;">
		<path d="M72.88 41.73L75.00 41.42L78.20 40.08L81.40 34.4L81.20 27.6L75.59 22.2L67.17 19.9L57.80 20L49.25 22.18L41.56 26.53L33.78 32.63L30.86 38.89L30.67 45.98L33.97 49.29L35.75 50.91L38.20 52.4L42.09 53.21L45.69 53.56L48.88 53.49L57.57 47.98L69.63 42.84z"/>
	</g>
	<g id="Path_8" style="fill-rule:none;clip-rule:nonzero;fill:#000000;stroke:#000000;stroke-miterlimit:4;fill-opacity:75%;">
		<path d="M66.75 36.63L69.39 33.09L69.32 29.22L66.53 26.91L62.46 25.9L57.79 25.77L52.76 26.95L48.00 29.33L44.13 32.08L41.75 35.21L41.40 38.35L43.61 40.85L47.79 42.38L52.61 42.35L57.26 39.78L61.67 37.92z"/>
	</g>
	<g id="Path_9" style="fill-rule:none;clip-rule:nonzero;fill:#000000;stroke:#000000;stroke-miterlimit:4;fill-opacity:75%;">
		<path d="M52.13 27.27L48.85 28.91L44.13 32.08L41.75 35.21L41.40 38.3L43.48 41.04L48.32 42.37L53.13 42.17L55.57 40.71L57.76 39.57L58.40 33.2L55.43 26.32z"/>
	</g>
	<g id="Path_2" style="fill-rule:none;clip-rule:nonzero;fill:none;stroke:#a8a8a8;stroke-miterlimit:4;fill-opacity:75%;">
		<path d="M41.80 68.2L43.20 65L44.40 59.6L43.40 54.2"/>
	</g>
	<g id="Path_19" style="fill-rule:none;clip-rule:nonzero;fill:none;stroke:#f80000;stroke-miterlimit:4;fill-opacity:75%;">
		<path d="M75.00 8.5L66.00 13L61.56 18.85L58.36 28.65L58.68 39.18"/>
	</g>
	<g id="Path_17" style="fill-rule:none;clip-rule:nonzero;fill:none;stroke:#f80000;stroke-miterlimit:4;fill-opacity:75%;">
		<path d="M73.60 16.2L68.01 20.12L63.00 29.5L61.00 37.2"/>
	</g>
	<g id="Path_14" style="fill-rule:none;clip-rule:nonzero;fill:#388c88;stroke:#000000;stroke-miterlimit:4;fill-opacity:75%;">
		<path d="M67.80 87.4L62.00 84L58.60 78.14L58.61 66.95L64.00 60L72.20 57.4L79.59 58.32L87.00 64.2L89.20 71.4L88.20 78.8L84.80 84.4L76.60 87.8z"/>
	</g>
	<g id="Path_15" style="fill-rule:nonzero;clip-rule:nonzero;fill:#00fc00;stroke:none;stroke-miterlimit:4;fill-opacity:75%;">
		<path d="M67.05 61.84L67.05 61.84L61.73 67.78L61.73 74.98L67.21 80.58L75.26 80.56L80.47 75.19L80.47 67.57L74.60 61.84z"/>
	</g>
	<g id="Path_16" style="fill-rule:nonzero;clip-rule:nonzero;fill:#f8fcf8;stroke:none;stroke-miterlimit:4;fill-opacity:75%;">
		<path d="M66.38 72.31L66.38 72.31L64.24 69.92L64.26 67.05L66.44 64.81L69.67 64.81L71.76 66.96L71.76 70.02L69.41 72.33z"/>
	</g>
	<g id="Outline of Outside of A" style="fill-rule:nonzero;clip-rule:nonzero;fill:#f80000;stroke:none;stroke-miterlimit:4;fill-opacity:75%;">
		<path d="M18.34 52.77L17.38 49.61L19.20 47.8L18.89 44.58L19.05 6.89L20.96 5.75L22.33 15.2L22.46 36.21L22.61 41.2L22.59 43.41L24.11 43.35L25.10 46.5z"/>
	</g>
	<g id="Outline of Outside of A" style="fill-rule:nonzero;clip-rule:nonzero;fill:#f80000;stroke:none;stroke-miterlimit:4;fill-opacity:75%;">
		<path d="M22.03 34.04L30.11 26.83L31.62 28.84L22.59 36.88z"/>
	</g>
	<g id="Outline of Outside of A" style="fill-rule:nonzero;clip-rule:nonzero;fill:#f80000;stroke:none;stroke-miterlimit:4;fill-opacity:75%;">
		<path d="M21.82 15.48L20.90 5.31L28.76 18.1L36.41 30.27L37.89 30.97L39.12 30.67L40.10 32.48L32.55 39.47L31.19 36.66L32.43 35.1L33.07 34.15L33.41 33.42L30.46 28.97z"/>
	</g>
	<g id="Path_22" style="fill-rule:none;clip-rule:nonzero;fill:none;stroke:#000000;stroke-miterlimit:4;fill-opacity:100%;">
		<path d="M25.10 46.5L18.34 52.77L17.38 49.61L19.20 47.8L18.89 44.58L19.05 6.89L20.95 5.42L35.15 28.5L36.41 30.27L37.89 30.97L39.12 30.67L40.10 32.48L32.50 39.4"/>
	</g>
	<g id="Path_21" style="fill-rule:none;clip-rule:nonzero;fill:none;stroke:#000000;stroke-miterlimit:4;fill-opacity:100%;">
		<path d="M22.34 16.63L22.50 16.53L29.41 27.34L22.31 33.79z"/>
	</g>
	<g id="Path_23" style="fill-rule:none;clip-rule:nonzero;fill:none;stroke:#000000;stroke-miterlimit:4;fill-opacity:100%;">
		<path d="M32.36 39.3L31.11 36.48L32.20 35.59L32.88 34.56L33.41 33.42L30.77 29.57L22.59 36.88L22.57 41.28L22.59 43.41L24.18 43.55L25.02 46.12"/>
	</g>
	<g id="Path_19" style="fill-rule:none;clip-rule:nonzero;fill:none;stroke:#0000f8;stroke-miterlimit:4;fill-opacity:100%;">
		<path d="M39.00 11.5L49.00 12.4L54.84 17.71L55.40 25.6L55.20 40.2"/>
	</g>
	<g id="Path_19" style="fill-rule:none;clip-rule:nonzero;fill:none;stroke:#0000f8;stroke-miterlimit:4;fill-opacity:100%;">
		<path d="M37.40 19.6L43.60 19.6L48.60 21.8L50.00 29.4L51.00 41.5"/>
	</g>
</g>
</svg>