<?xml version="1.0" standalone="no"?>
<!DOCTYPE svg PUBLIC "-//W3C//DTD SVG 20000303 Stylable//EN"
	"http://www.w3.org/TR/2000/03/WD-SVG-20000303/DTD/svg-20000303-stylable.dtd">
<svg width="50pt" height="50pt" viewBox="0 0 50 50" xml:space="preserve">
<g transform="scale(0.5)">
	<g id="Path_28" style="fill-rule:none;clip-rule:nonzero;fill:none;stroke:#000000;stroke-miterlimit:4;">
		<path d="M68.23 14.44L66.19 9.06999999999999L63.78 19.25L58.97 5.18000000000001L56.37 29.07L52.67 13.33L49.70 28.33L47.85 17.73L45.07 26.02"/>
	</g>
	<g id="Path_28" style="fill-rule:none;clip-rule:nonzero;fill:none;stroke:#000000;stroke-miterlimit:4;">
		<path d="M84.72 36.85L82.68 31.48L80.27 41.67L75.45 27.59L72.86 51.49L69.15 35.74L66.19 50.75L64.34 40.14L61.56 48.43"/>
	</g>
	<g id="Path_28" style="fill-rule:none;clip-rule:nonzero;fill:none;stroke:#000000;stroke-miterlimit:4;">
		<path d="M30.07 66.46L27.11 72.48L23.22 60.44L22.29 80.63L16.92 68.22L16.18 84.06L11.54 77.11L8.95 87.12"/>
	</g>
	<g id="Path_28" style="fill-rule:none;clip-rule:nonzero;fill:none;stroke:#000000;stroke-miterlimit:4;">
		<path d="M13.44 41.66L12.70 46.75L8.81 34.71L7.88 54.9L2.51 42.49L1.77 58.33"/>
	</g>
	<g id="Path_6" style="fill-rule:none;clip-rule:nonzero;fill:#c07070;stroke:#000000;stroke-miterlimit:4;">
		<path d="M38.40 13.7L41.30 21.27L41.52 31.77L38.95 44.12L34.23 52.34L26.71 56.2L18.57 55.09L15.75 44.93L15.75 34.64L18.18 24.3L24.99 15.19L32.21 11.98z"/>
	</g>
	<g id="Path_10" style="fill-rule:none;clip-rule:nonzero;fill:#000000;stroke:#000000;stroke-miterlimit:4;">
		<path d="M33.05 34.89L34.63 26.26L33.62 24.31L33.62 24.31L33.62 24.31z"/>
	</g>
	<g id="Path_9" style="fill-rule:none;clip-rule:nonzero;fill:#000000;stroke:#000000;stroke-miterlimit:4;">
		<path d="M28.70 21.31L33.01 26.29L33.22 26.07L33.83 28.24L33.60 25.59L33.83 23.47L28.49 18.94z"/>
	</g>
	<g id="Path_17" style="fill-rule:none;clip-rule:nonzero;fill:none;stroke:#000000;stroke-miterlimit:4;">
		<path d="M28.52 42.06L28.43 39.55L28.49 18.94"/>
	</g>
	<g id="Path_7" style="fill-rule:none;clip-rule:nonzero;fill:#000000;stroke:#000000;stroke-miterlimit:4;">
		<path d="M24.61 38.97L28.31 42L25.84 46.12L22.87 46.76L21.31 44.61L22.34 40.7L24.61 38.97L28.31 42L28.43 39.55z"/>
	</g>
	<g id="Path_6" style="fill-rule:none;clip-rule:nonzero;fill:#c07070;stroke:#000000;stroke-miterlimit:4;">
		<path d="M56.93 32.22L59.83 39.8L60.05 50.29L57.47 62.65L52.75 70.87L45.25 74.73L37.10 73.62L34.27 63.46L34.27 53.17L36.72 42.83L43.52 33.71L50.73 30.51z"/>
	</g>
	<g id="Path_10" style="fill-rule:none;clip-rule:nonzero;fill:#000000;stroke:#000000;stroke-miterlimit:4;">
		<path d="M51.58 53.42L53.16 44.78L52.15 42.84L52.15 42.84L52.15 42.84z"/>
	</g>
	<g id="Path_9" style="fill-rule:none;clip-rule:nonzero;fill:#000000;stroke:#000000;stroke-miterlimit:4;">
		<path d="M47.23 39.84L51.55 44.82L51.74 44.6L52.36 46.76L52.12 44.12L52.36 41.99L47.02 37.47z"/>
	</g>
	<g id="Path_17" style="fill-rule:none;clip-rule:nonzero;fill:none;stroke:#000000;stroke-miterlimit:4;">
		<path d="M47.04 60.58L46.96 58.07L47.02 37.47"/>
	</g>
	<g id="Path_7" style="fill-rule:none;clip-rule:nonzero;fill:#000000;stroke:#000000;stroke-miterlimit:4;">
		<path d="M43.14 57.49L46.83 60.53L44.37 64.64L41.40 65.28L39.85 63.12L40.87 59.22L43.14 57.49L46.83 60.53L46.96 58.07z"/>
	</g>
	<g id="Path_15" style="fill-rule:nonzero;clip-rule:nonzero;fill:#00fcf8;stroke:none;stroke-miterlimit:4;">
		<path d="M69.95 78.33L69.31 75.95L70.40 73.2L76.28 75.01z"/>
	</g>
	<g id="Path_15" style="fill-rule:nonzero;clip-rule:nonzero;fill:#00fcf8;stroke:none;stroke-miterlimit:4;">
		<path d="M69.33 76.1L64.72 75.03L42.28 30.37L46.54 30.95L68.96 69.02L70.42 73.35z"/>
	</g>
	<g id="Path_15" style="fill-rule:none;clip-rule:nonzero;fill:none;stroke:#000000;stroke-miterlimit:4;fill-opacity:100%;">
		<path d="M70.02 78.38L69.38 76L64.77 74.93L42.33 30.27L46.59 30.85L69.01 68.92L70.47 73.25L76.35 75.06z"/>
	</g>
	<g id="Path_7" style="fill-rule:nonzero;clip-rule:nonzero;fill:#00fcf8;stroke:none;stroke-miterlimit:4;fill-opacity:100%;">
		<path d="M70.69 59.79L66.48 62.48L70.35 66.39L73.92 64.74z"/>
	</g>
	<g id="Path_16" style="fill-rule:nonzero;clip-rule:nonzero;fill:#f87e00;stroke:none;stroke-miterlimit:4;fill-opacity:100%;">
		<path d="M74.33 83.21L75.50 80.85L73.35 75.57L69.99 78.5z"/>
	</g>
	<g id="Path_17" style="fill-rule:nonzero;clip-rule:nonzero;fill:#f87e00;stroke:none;stroke-miterlimit:4;fill-opacity:100%;">
		<path d="M77.76 81.14L80.52 83.22L82.88 85.68L86.42 83.83L80.70 78.13L76.20 75.12z"/>
	</g>
	<g id="Path_18" style="fill-rule:nonzero;clip-rule:nonzero;fill:#f87e00;stroke:none;stroke-miterlimit:4;fill-opacity:100%;">
		<path d="M90.02 93.63L89.26 88.83L86.44 83.8L82.90 85.65L84.89 87.86L85.05 90.93L83.32 91.93L87.50 97.09z"/>
	</g>
	<g id="Path_19" style="fill-rule:nonzero;clip-rule:nonzero;fill:#f87e00;stroke:none;stroke-miterlimit:4;fill-opacity:100%;">
		<path d="M77.29 95.28L79.99 96.46L82.84 97.7L87.50 97.09L83.39 92L81.09 92.29L79.62 91.62L78.30 91.03L75.87 88.68L72.34 90.48z"/>
	</g>
	<g id="Path_6" style="fill-rule:nonzero;clip-rule:nonzero;fill:#00fcf8;stroke:none;stroke-miterlimit:4;fill-opacity:100%;">
		<path d="M66.48 62.48L57.47 62.65L54.17 68.4L69.33 70.94z"/>
	</g>
	<g id="Path_7" style="fill-rule:nonzero;clip-rule:nonzero;fill:#00fcf8;stroke:none;stroke-miterlimit:4;fill-opacity:100%;">
		<path d="M78.54 59.71L70.69 59.79L73.92 64.74L82.85 64.63z"/>
	</g>
	<g id="Path_8" style="fill-rule:none;clip-rule:nonzero;fill:none;stroke:#000000;stroke-miterlimit:4;fill-opacity:100%;">
		<path d="M78.54 59.71L70.82 59.73L66.48 62.47L62.17 62.48L57.47 62.65L54.17 68.4L69.33 70.94L70.55 66.36L74.11 64.71L82.77 64.63"/>
	</g>
	<g id="Path_33" style="fill-rule:none;clip-rule:nonzero;fill:#505450;stroke:#000000;stroke-miterlimit:4;fill-opacity:100%;">
		<path d="M63.37 67.76L65.58 66.79L65.48 64.62L63.37 65.68z"/>
	</g>
	<g id="Path_7" style="fill-rule:nonzero;clip-rule:nonzero;fill:#00fcf8;stroke:none;stroke-miterlimit:4;fill-opacity:100%;">
		<path d="M66.48 62.48L69.27 70.84L70.51 66.31z"/>
	</g>
	<g id="Path_16" style="fill-rule:nonzero;clip-rule:nonzero;fill:#f87e00;stroke:none;stroke-miterlimit:4;fill-opacity:100%;">
		<path d="M74.43 85.12L74.33 83.15L69.99 78.44L69.41 84.63z"/>
	</g>
	<g id="Path_16" style="fill-rule:nonzero;clip-rule:nonzero;fill:#f87e00;stroke:none;stroke-miterlimit:4;fill-opacity:100%;">
		<path d="M75.99 88.89L74.44 85.04L69.42 84.55L72.44 90.49z"/>
	</g>
	<g id="Circle" style="fill-rule:none;clip-rule:nonzero;fill:none;stroke:#000000;stroke-miterlimit:4;fill-opacity:100%;">
		<path d="M77.90 81.25L75.53 80.9L74.36 83.26L74.46 85.23L75.99 88.82L78.42 91.17L80.12 91.89L81.70 92.29L83.37 92L85.17 91.07L85.01 88L83.02 85.79L80.66 83.33z"/>
	</g>
	<g id="Path_17" style="fill-rule:nonzero;clip-rule:nonzero;fill:#f87e00;stroke:none;stroke-miterlimit:4;fill-opacity:100%;">
		<path d="M75.50 80.89L77.88 81.25L76.32 75.23L73.35 75.57z"/>
	</g>
	<g id="Path_5" style="fill-rule:nonzero;clip-rule:nonzero;fill:#f87e00;stroke:none;stroke-miterlimit:4;fill-opacity:100%;">
		<path d="M89.68 57.01L85.81 56.01L85.37 53.02L91.33 54.73z"/>
	</g>
	<g id="Path_9" style="fill-rule:nonzero;clip-rule:nonzero;fill:#f87e00;stroke:none;stroke-miterlimit:4;fill-opacity:100%;">
		<path d="M75.85 59.72L78.08 62.39L82.62 67.26L89.34 69.03L87.71 66.45L84.94 64.53L82.01 62.5L80.50 59.99z"/>
	</g>
	<g id="Path_9" style="fill-rule:nonzero;clip-rule:nonzero;fill:#f87e00;stroke:none;stroke-miterlimit:4;fill-opacity:100%;">
		<path d="M80.06 53.46L76.38 55.88L75.85 59.72L80.62 60.01L80.94 57.74L83.00 56.26L85.93 56.04L85.49 53.04z"/>
	</g>
	<g id="Path_5" style="fill-rule:nonzero;clip-rule:nonzero;fill:#f87e00;stroke:none;stroke-miterlimit:4;fill-opacity:100%;">
		<path d="M91.64 65.27L93.70 63.8L94.77 63.42L98.63 62.29L98.11 66.12L94.66 68.57L89.23 69.01L88.39 65.52z"/>
	</g>
	<g id="Path_5" style="fill-rule:nonzero;clip-rule:nonzero;fill:#f87e00;stroke:none;stroke-miterlimit:4;fill-opacity:100%;">
		<path d="M92.63 59.07L89.68 57.01L91.33 54.73L96.25 58.15z"/>
	</g>
	<g id="Path_5" style="fill-rule:nonzero;clip-rule:nonzero;fill:#f87e00;stroke:none;stroke-miterlimit:4;fill-opacity:100%;">
		<path d="M94.12 61.54L92.61 59.04L96.23 58.13L98.74 62.32z"/>
	</g>
	<g id="Circle" style="fill-rule:none;clip-rule:nonzero;fill:none;stroke:#000000;stroke-miterlimit:4;fill-opacity:100%;">
		<path d="M76.30 75.16L73.33 75.55L69.97 78.48L69.39 84.67L72.41 90.55L77.36 95.35L80.06 96.54L82.91 97.77L87.57 97.17L90.09 93.7L89.33 88.9L86.52 83.88L80.79 78.17z"/>
	</g>
	<g id="Path_5" style="fill-rule:nonzero;clip-rule:nonzero;fill:#f87e00;stroke:none;stroke-miterlimit:4;fill-opacity:100%;">
		<path d="M98.63 62.29L93.81 63.82L94.59 60.86z"/>
	</g>
	<g id="Path_5" style="fill-rule:nonzero;clip-rule:nonzero;fill:#f87e00;stroke:none;stroke-miterlimit:4;fill-opacity:100%;">
		<path d="M90.08 65.42L89.08 68.38L85.48 64.9z"/>
	</g>
	<g id="Circle" style="fill-rule:none;clip-rule:nonzero;fill:none;stroke:#000000;stroke-miterlimit:4;fill-opacity:100%;">
		<path d="M79.83 53.42L76.38 55.88L75.85 59.72L78.88 63.35L82.62 67.26L89.23 69.01L91.88 68.8L94.66 68.57L98.11 66.12L98.63 62.29L96.12 58.11L91.22 54.71L85.26 52.99z"/>
	</g>
	<g id="Circle" style="fill-rule:none;clip-rule:nonzero;fill:none;stroke:#000000;stroke-miterlimit:4;fill-opacity:100%;">
		<path d="M82.88 56.24L80.82 57.71L80.50 59.99L82.01 62.5L84.94 64.53L88.50 65.54L90.08 65.42L91.74 65.29L93.81 63.82L94.12 61.54L92.61 59.04L89.68 57.01L86.13 55.98z"/>
	</g>
</g>
</svg>