<?xml version="1.0" standalone="no"?>
<!DOCTYPE svg PUBLIC "-//W3C//DTD SVG 20000303 Stylable//EN"
	"http://www.w3.org/TR/2000/03/WD-SVG-20000303/DTD/svg-20000303-stylable.dtd">
<svg width="50pt" height="50pt" viewBox="0 0 50 50" xml:space="preserve">
<g transform="scale(0.5)">
	<g id="cpio Label" style="fill-rule:none;clip-rule:nonzero;fill:none;stroke:#000000;stroke-miterlimit:4;fill-opacity:100%;">
		<path d="M48.98 41.67L48.09 40.78L46.99 40.45L45.55 40.67L44.23 41.56L43.24 42.99L42.35 44.65L41.69 46.63L41.47 48.51L41.58 50.28L42.13 51.82L43.68 53.04L45.44 53.15L47.21 52.26L48.53 50.94L49.20 49.84L49.64 48.51"/>
	</g>
	<g id="Path_1" style="fill-rule:none;clip-rule:nonzero;fill:none;stroke:#000000;stroke-miterlimit:4;fill-opacity:100%;">
		<path d="M52.73 55.25L52.73 37.36"/>
	</g>
	<g id="Path_2" style="fill-rule:none;clip-rule:nonzero;fill:none;stroke:#000000;stroke-miterlimit:4;fill-opacity:100%;">
		<path d="M52.73 39.9L53.50 38.13L54.39 36.92L55.71 35.82L57.04 35.26L58.58 35.48L59.57 36.37L60.13 37.36L60.46 38.69L60.57 40.12L60.46 41.22L60.46 42.44L59.80 44.1L59.13 45.2L58.25 46.19L57.48 46.97L56.37 47.74L55.16 47.85L54.05 47.41L53.39 46.97L52.73 46.19"/>
	</g>
	<g id="Path_3" style="fill-rule:none;clip-rule:nonzero;fill:none;stroke:#000000;stroke-miterlimit:4;fill-opacity:100%;">
		<path d="M65.11 42.76L65.11 31.06"/>
	</g>
	<g id="Path_4" style="fill-rule:none;clip-rule:nonzero;fill:none;stroke:#000000;stroke-miterlimit:4;fill-opacity:100%;">
		<path d="M73.84 38.4L72.84 38.84L71.63 38.84L70.52 38.51L69.86 37.63L69.31 36.08L68.87 34.54L68.98 32.66L69.42 31.11L70.08 29.68L70.96 28.46L72.07 27.36L73.28 26.59L74.50 26.15L75.93 26.48L77.15 27.25L78.03 28.35L78.14 29.35L78.30 30.45L78.25 31.78L77.92 33.21L77.48 34.54L76.93 35.53L76.15 36.52L75.27 37.41L74.50 38.07L73.84 38.51"/>
	</g>
</g>
</svg>